<svg xmlns="http://www.w3.org/2000/svg" viewBox="0 0 321.44 107.5"><defs><style>.cls-1{fill:#23ade5;fill-rule:evenodd;}</style></defs><g id="图层_2" data-name="图层 2"><g id="图层_1-2" data-name="图层 1"><path class="cls-1" d="M99,53C99,23.77,76.84,0,49.5,0S0,23.77,0,53s22.16,53,49.5,53a47.08,47.08,0,0,0,29.05-10.1L89.06,107.5l18.38-18.38L93.79,76.7A55.74,55.74,0,0,0,99,53ZM84.84,68.57l-8.51-7.74L60.78,76.39l7.59,8.35A29.27,29.27,0,0,1,57,87C39.88,87,26,72.27,26,54S39.88,21,57,21,88,35.82,88,54A34.7,34.7,0,0,1,84.84,68.57ZM140,17A147.94,147.94,0,0,0,123.29,48.2l-12-2.81-6.21,23.18,10.67,3.21A166.83,166.83,0,0,0,111,102l33,4a172.81,172.81,0,0,1,3.82-24.63l20.54,6.17,7.25-27L156.23,56C163.45,39.73,171,32,171,32c21.25-20.9,24,72,24,72h14c2.5-50.15-19-87-19-87S167.25-21.3,140,17ZM307.79,76.7A55.74,55.74,0,0,0,313,53c0-29.27-22.16-53-49.5-53S214,23.77,214,53s22.16,53,49.5,53a47.08,47.08,0,0,0,29.05-10.1l10.51,11.56,18.38-18.38Zm-9-8.13-8.51-7.74L274.78,76.39l7.59,8.35A29.27,29.27,0,0,1,271,87c-17.12,0-31-14.77-31-33s13.88-33,31-33,31,14.78,31,33A34.7,34.7,0,0,1,298.84,68.57Z"/></g></g></svg>